<?xml version="1.0" encoding="utf-8"?>
<!-- Generator: Adobe Illustrator 21.0.2, SVG Export Plug-In . SVG Version: 6.00 Build 0)  -->
<svg version="1.1" id="Capa_1" xmlns="http://www.w3.org/2000/svg" xmlns:xlink="http://www.w3.org/1999/xlink" x="0px" y="0px"
	 viewBox="0 0 49.7 49.7" style="enable-background:new 0 0 49.7 49.7;" xml:space="preserve">
<style type="text/css">
	.st0{fill:none;}
	.st1{fill:#FFFFFF;}
</style>
<g>
	<rect class="st0" width="49.7" height="49.7"/>
	<line class="st0" x1="0" y1="41.4" x2="49.7" y2="41.4"/>
	<line class="st0" x1="0" y1="33.1" x2="49.7" y2="33.1"/>
	<line class="st0" x1="0" y1="24.8" x2="49.7" y2="24.8"/>
	<line class="st0" x1="0" y1="16.6" x2="49.7" y2="16.6"/>
	<line class="st0" x1="0" y1="8.3" x2="49.7" y2="8.3"/>
	<line class="st0" x1="41.4" y1="0" x2="41.4" y2="49.7"/>
	<line class="st0" x1="33.1" y1="0" x2="33.1" y2="49.7"/>
	<line class="st0" x1="24.8" y1="0" x2="24.8" y2="49.7"/>
	<line class="st0" x1="16.6" y1="0" x2="16.6" y2="49.7"/>
	<line class="st0" x1="8.3" y1="0" x2="8.3" y2="49.7"/>
</g>
<path class="st1" d="M29.7,39.6l13.8-19.2c2.8-3.9,0-9.4-4.8-9.4H11.1c-4.9,0-7.7,5.5-4.8,9.4L20,39.6C22.4,43,27.3,43,29.7,39.6z"
	/>
</svg>
